<?xml version="1.0" encoding="UTF-8"?>
<svg id="Layer_2" data-name="Layer 2" xmlns="http://www.w3.org/2000/svg" viewBox="0 0 942.59 260.28">
  <defs>
    <style>
      .cls-1, .cls-2 {
        fill: #fff;
      }

      .cls-2 {
        opacity: .39;
      }

      .cls-3 {
        stroke-linecap: round;
      }

      .cls-3, .cls-4 {
        fill: none;
        stroke: #fff;
        stroke-miterlimit: 10;
        stroke-width: 10px;
      }

      .cls-5 {
        fill: #0cc490;
      }

      .cls-6 {
        fill: #fee488;
      }

      .cls-4 {
        stroke-linecap: square;
      }
    </style>
  </defs>
  <g id="Layer_2-2" data-name="Layer 2">
    <g>
      <path class="cls-2" d="M534.87,127.72v.04c-.02,11.13-1.74,28.06-10.32,42.21,0,.02,0,.04-.03,.06-2.01,3.32-4.4,6.49-7.24,9.39-1.86,1.9-3.79,3.5-5.74,4.9,0,0-.01,0-.01,.01-4.01,2.86-8.11,4.86-11.85,6.81-.02,0-.05,.02-.07,.04-2.15,1.11-4.18,2.21-6.01,3.45-5.08,3.41-8.61,7.88-8.83,16.65v39h-12.24v-39c-.49-20.16-18.53-17.56-32.5-31.86-2.89-2.96-5.32-6.19-7.36-9.58-1.04-1.73-1.98-3.5-2.82-5.29-10.59-22.44-6.73-48.84-6.73-48.84l5.88-58.71,3.52-47.86s26.3-11.49,58.21-1.33c21.96-5.82,34.98-1.17,34.98-1.17l4.41,68.47,4.06,40.6s.7,4.78,.69,12.01Z"/>
      <path class="cls-6" d="M534.87,127.53v.04l-1.9,19.68-8.42,22.53s0,.04-.03,.06l-12.98,14.29s-.01,0-.01,.01l-11.85,6.81s-.05,.02-.07,.04l-6.01,3.45-6.06,10.04-1.68,16.47,.11,15.6,.21,12.57-.21,3.47h-14.96v-11.49l-.21-19.39-.11-14.74-2.06-6.39-9.43-7.05-20.8-13.11-5.73-10.77-2.82-5.29-5.75-10.81-3.47-29.69,6.61-64.9,1.76-2.15h0s37.73-15.08,64.25,.47c15.25,7.75,34.2-3.52,34.2-3.52l2.67,21.16,4.75,52.61Z"/>
      <line id="alus" class="cls-4" x1="432.77" y1="251.28" x2="524.54" y2="251.28"/>
      <path id="_äär" data-name="äär" class="cls-3" d="M484.77,250.09v-39.01c.49-20.15,18.53-17.55,32.51-31.86,22.81-23.34,16.9-63.71,16.9-63.71l-11.05-110.52h-46.7s-42.26,0-42.26,0l-11.05,110.52s-5.91,40.37,16.9,63.71c13.98,14.3,32.02,11.7,32.51,31.86v39.01"/>
      <path id="läige" class="cls-2" d="M446.63,7.82h13.65s-23.4,153.42-2.93,179.43c0,0-29.58-21.45-10.73-179.43Z"/>
    </g>
    <g>
      <g>
        <polygon class="cls-5" points="30.9 252.09 30.9 177.44 5 177.44 5 140.11 100.67 140.11 100.67 177.6 74.94 177.6 74.94 252.09 30.9 252.09"/>
        <path class="cls-1" d="M95.67,145.11v27.49h-25.73v74.49H35.89v-74.65H10v-27.33H95.67m10-10H0v47.33H25.89v74.65h54.05v-74.49h25.73v-47.49h0Z"/>
      </g>
      <g>
        <path class="cls-5" d="M156.57,254.96c-15.92,0-30.92-5.69-42.23-16.01-11.96-10.92-18.55-26.14-18.55-42.85s6.59-31.94,18.55-42.85c5.29-4.83,11.39-8.64,18.01-11.34l-17.58-7.5,2.76-4.87c.66-1.16,16.29-28.42,29.92-28.42,4.95,0,9.61,3.13,13.71,5.9,1.68,1.13,4.17,2.8,5.32,3.16,1.23-.58,4.58-3.27,8.92-9.12l2.35-3.17,21.88,9.34-2.76,4.87c-.57,1.01-12.38,21.61-24.4,27.1,9.84,2.48,18.88,7.26,26.32,14.05,11.96,10.92,18.55,26.14,18.55,42.85s-6.59,31.94-18.55,42.85c-11.31,10.33-26.31,16.01-42.23,16.01Zm0-77.2c-8.88,0-16.1,8.37-16.1,18.66s7.22,18.34,16.1,18.34,16.1-8.23,16.1-18.34-7.22-18.66-16.1-18.66Zm-8.64-46.3c-1.14,.54-4.12,2.9-8.01,7.92,5.35-1.42,10.94-2.15,16.65-2.15,.24,0,.48,0,.72,0-1.39-.83-2.74-1.74-4.04-2.61-1.68-1.13-4.17-2.8-5.32-3.16Z"/>
        <path class="cls-1" d="M179.43,104.03l13.11,5.59c-3.36,5.91-16.62,25.89-25.57,25.89-6.39,0-14.39-9.11-19.18-9.11-3.2,0-8.63,5.59-12.79,11.19l-13.11-5.59c3.36-5.91,16.62-25.89,25.57-25.89,6.39,0,14.39,9.11,19.18,9.11,3.2,0,8.63-5.59,12.79-11.19m-22.86,38.2c29.25,0,55.78,21.26,55.78,53.87s-26.53,53.87-55.78,53.87-55.78-21.26-55.78-53.87,26.53-53.87,55.78-53.87m0,77.52c11.83,0,21.1-10.55,21.1-23.34s-9.27-23.66-21.1-23.66-21.1,10.87-21.1,23.66,9.27,23.34,21.1,23.34m19.53-128.02l-4.7,6.33c-2.14,2.88-4.03,4.92-5.36,6.17-.71-.46-1.47-.97-2.08-1.38-4.47-3.01-10.02-6.75-16.5-6.75-7.12,0-14.28,4.53-22.52,14.27-5.46,6.45-9.96,13.53-11.75,16.69l-5.53,9.74,10.3,4.4,2.6,1.11c-3.4,2.11-6.61,4.53-9.59,7.24-13.01,11.88-20.18,28.41-20.18,46.55s7.17,34.67,20.18,46.55c12.24,11.17,28.43,17.32,45.6,17.32s33.36-6.15,45.6-17.32c13.01-11.88,20.18-28.41,20.18-46.55s-7.17-34.67-20.18-46.55c-5.52-5.04-11.85-9.06-18.71-11.95,1.95-1.8,3.94-3.91,6.01-6.35,5.46-6.45,9.96-13.53,11.75-16.69l5.53-9.74-10.3-4.4-13.11-5.59-7.25-3.1h0Zm-19.53,118.02c-6.12,0-11.1-5.98-11.1-13.34s5.08-13.66,11.1-13.66,11.1,6.25,11.1,13.66-4.98,13.34-11.1,13.34h0Z"/>
      </g>
      <g>
        <path class="cls-5" d="M217.27,252.09v-111.98h42.56c16.12,0,30.96,5.45,41.79,15.36,11.21,10.25,17.39,24.68,17.39,40.63s-6.18,30.38-17.39,40.63c-10.83,9.9-25.68,15.36-41.79,15.36h-42.56Zm42.45-37.26c9.33-.87,15.25-7.96,15.25-18.57s-5.92-17.85-15.25-18.73v37.29Z"/>
        <path class="cls-1" d="M259.83,145.11c30.21,0,54.19,20.46,54.19,50.99s-23.98,50.99-54.19,50.99h-37.56v-101.98h37.56m-5.11,74.81h3.04c12.31,0,22.22-8.63,22.22-23.66s-9.91-23.82-22.22-23.82h-3.04v47.47m5.11-84.81h-47.56v121.98h47.56c17.37,0,33.41-5.92,45.17-16.67,12.26-11.21,19.02-26.95,19.02-44.32s-6.75-33.11-19.02-44.32c-11.76-10.75-27.8-16.67-45.17-16.67h0Zm4.89,72.92v-23.68c3.37,2.24,5.25,6.35,5.25,11.91s-1.88,9.56-5.25,11.77h0Z"/>
      </g>
      <g>
        <polygon class="cls-5" points="318.92 252.09 318.92 140.11 391.1 140.11 391.1 177.44 385.35 177.44 385.35 214.75 394.94 214.75 394.94 252.09 318.92 252.09"/>
        <path class="cls-1" d="M386.1,145.11v27.33h-29.09v9.59h23.34v28.13h-23.34v9.59h32.93v27.33h-66.01v-101.98h62.18m10-10h-82.18v121.98h86.01v-47.33h-9.59v-27.31h5.75v-47.33h0Z"/>
      </g>
    </g>
    <g>
      <g>
        <polygon class="cls-5" points="588.89 252.41 588.89 177.76 562.99 177.76 562.99 140.43 658.67 140.43 658.67 177.92 632.93 177.92 632.93 252.41 588.89 252.41"/>
        <path class="cls-1" d="M653.67,145.43v27.49h-25.73v74.49h-34.05v-74.65h-25.89v-27.33h85.67m10-10h-105.67v47.33h25.89v74.65h54.05v-74.49h25.73v-47.49h0Z"/>
      </g>
      <g>
        <polygon class="cls-5" points="656.02 252.41 656.02 140.43 728.2 140.43 728.2 177.76 722.44 177.76 722.44 215.07 732.03 215.07 732.03 252.41 656.02 252.41"/>
        <path class="cls-1" d="M723.2,145.43v27.33h-29.09v9.59h23.34v28.13h-23.34v9.59h32.93v27.33h-66.01v-101.98h62.18m10-10h-82.18v121.98h86.01v-47.33h-9.59v-27.31h5.75v-47.33h0Z"/>
      </g>
      <g>
        <path class="cls-5" d="M789.21,255.28c-30.84,0-62.06-20.22-62.06-58.87,0-17.8,6.79-32.97,19.63-43.87,11.23-9.53,26.69-14.99,42.44-14.99s29.68,4.7,36.41,9.36l2.81,1.95-7.56,31.53h11.7v62.25l-1.91,1.5c-6.46,5.08-18.89,11.14-41.45,11.14Zm-3.11-39.16c1.37,.25,2.84,.39,4.39,.39,.45,0,.86,0,1.23-.02v-.37h-5.62Zm6.47-39c-15.1,0-21.85,10.33-21.85,20.57,0,6.34,3.12,12.73,9.18,16.19v-33.5h29.58c-4.28-1.82-10.31-3.27-16.91-3.27Z"/>
        <path class="cls-1" d="M789.21,142.55c14.23,0,27.33,4.16,33.57,8.47l-6.55,27.33c-5.11-3.52-14.23-6.23-23.66-6.23-17.26,0-26.85,11.83-26.85,25.57,0,11.67,8.79,23.82,24.78,23.82,2.4,0,4.16-.16,6.23-.8v-9.59h-11.83v-25.73h42.68v54.83c-7.51,5.91-20.3,10.07-38.36,10.07-28.77,0-57.06-18.54-57.06-53.87s28.61-53.87,57.06-53.87m0-10c-17.16,0-33.38,5.75-45.67,16.18-13.79,11.71-21.39,28.64-21.39,47.68s7.36,36,21.27,47.81c12.21,10.36,28.47,16.06,45.79,16.06,18.99,0,34.4-4.22,44.55-12.21l3.81-3v-69.68h-10.35l5.28-22.03,1.6-6.66-5.63-3.9c-8.85-6.13-24.63-10.25-39.26-10.25h0Z"/>
      </g>
      <g>
        <path class="cls-5" d="M885.76,254.96c-13.75,0-26.49-4.05-35.86-11.42-10.45-8.22-15.98-19.7-15.98-33.22v-69.9h44.05v67.82c0,7.41,7.28,7.63,8.11,7.63s8.11-.21,8.11-7.47v-67.98h43.41v69.9c0,13.52-5.52,25.01-15.98,33.22-9.37,7.36-22.1,11.42-35.86,11.42Z"/>
        <path class="cls-1" d="M932.59,145.43v64.9c0,25.25-21.9,39.64-46.83,39.64s-46.83-14.39-46.83-39.64v-64.9h34.05v62.82c0,9.11,7.35,12.63,13.11,12.63s13.11-3.52,13.11-12.47v-62.98h33.41m10-10h-53.41v72.98c0,.74,0,2.47-3.11,2.47s-3.11-1.84-3.11-2.63v-72.82h-54.05v74.9c0,14.89,6.35,28.09,17.89,37.15,10.24,8.05,24.08,12.49,38.95,12.49s28.7-4.43,38.95-12.49c11.53-9.07,17.89-22.26,17.89-37.15v-74.9h0Z"/>
      </g>
    </g>
  </g>
</svg>